<svg xmlns="http://www.w3.org/2000/svg" version="1.1" xmlns:xlink="http://www.w3.org/1999/xlink" xmlns:svgjs="http://svgjs.dev/svgjs" width="2000" height="1796" viewBox="0 0 2000 1796">
	<g transform="matrix(1,0,0,1,1.2213032130931651,0.7271255060728663)">
		<svg viewBox="0 0 275 247" data-background-color="#ffffff" preserveAspectRatio="xMidYMid meet" height="1796" width="2000" xmlns="http://www.w3.org/2000/svg" xmlns:xlink="http://www.w3.org/1999/xlink">
			<g id="tight-bounds" transform="matrix(1,0,0,1,-0.16792919180031163,-0.09999999999999432)">
				<svg viewBox="0 0 275.335857341922 247.2" height="247.2" width="275.335857341922">
					<g>
						<svg viewBox="0 0 395.52 355.10283674596917" height="247.2" width="275.335857341922">
							<g transform="matrix(1,0,0,1,0,213.58972222454682)">
								<svg viewBox="0 0 395.52 141.51311452142238" height="141.51311452142238" width="395.52">
									<g id="textblocktransform">
										<svg viewBox="0 0 395.52 141.51311452142238" height="141.51311452142238" width="395.52" id="textblock">
											<g>
												<svg viewBox="0 0 395.52 76.3254119687771" height="76.3254119687771" width="395.52">
													<g transform="matrix(1,0,0,1,0,0)">
														<svg width="395.52" viewBox="0.7799999713897705 -32.150001525878906 168.88999938964844 32.59000015258789" height="76.3254119687771" data-palette-color="#50a060">
															<path d="M14.43-20.85L14.43-17.36Q14.53-17.29 14.99-17.29 15.45-17.29 15.7-17.65 15.94-18.02 15.94-18.85L15.94-18.85 15.94-19.73Q15.94-20.61 15.73-20.98 15.53-21.36 15.05-21.36 14.58-21.36 14.4-21.26L14.4-21.26Q14.43-21.14 14.43-20.85L14.43-20.85ZM27.03-11.79L27.03-11.79 31.25-7.47Q30.81-3.66 28.85-1.61 26.88 0.44 23.41 0.44L23.41 0.44Q20.8 0.44 18.87-0.81L18.87-0.81Q16.41-2.37 15.19-5.79L15.19-5.79 14.31-8.18Q13.28-8.2 11.72-8.45L11.72-8.45Q11.52-8.25 11.52-7.91L11.52-7.91Q11.52-7.25 13.5-7.13L13.5-7.13 14.89-3.61 14.89-1.54Q12.08 0.44 7.69 0.44L7.69 0.44Q4.54 0.44 2.66-0.85 0.78-2.15 0.78-4.61L0.78-4.61 0.78-27.81Q0.78-28.88 2.76-29.9 4.74-30.91 7.93-31.53 11.13-32.15 14.33-32.15L14.33-32.15Q21.66-32.15 25.78-29.15L25.78-29.15Q30.13-26 30.13-20.29L30.13-20.29Q30.13-17.02 28.28-14.69 26.44-12.35 23.63-11.45L23.63-11.45Q23.63-10.67 24.57-10.67 25.51-10.67 27.03-11.79ZM43.14-31.49L43.14-31.49 57.22-31.49Q57.93-30.32 58.27-28.94 58.62-27.56 58.62-26.46L58.62-26.46Q58.62-24 57.65-22.75 56.69-21.51 54.95-21.51L54.95-21.51 45.11-21.51Q44.21-21.51 44.21-20.8L44.21-20.8 44.21-20.61Q44.21-20.46 44.26-20.41L44.26-20.41 55.93-20.41Q56.37-19.65 56.69-18.51L56.69-18.51Q56.98-17.26 56.98-16.28L56.98-16.28Q56.98-13.38 55.91-11.74L55.91-11.74 50.61-11.74Q46.9-11.74 45.58-11.46 44.26-11.18 43.94-10.99L43.94-10.99Q43.63-10.77 43.63-10.42 43.63-10.08 43.97-9.89L43.97-9.89Q45.24-10.3 46.63-10.47L46.63-10.47Q48.46-10.64 50.61-10.64L50.61-10.64 57.47-10.64Q58.96-8.54 58.96-5.59L58.96-5.59Q58.96-3.93 58.54-2.42 58.13-0.9 57.3 0.02L57.3 0.02 39.01 0.02Q35.98 0.02 34.15-1.44L34.15-1.44Q32.15-3 32.15-6.03L32.15-6.03 32.15-29.25Q32.15-30.42 34.84-30.96 37.52-31.49 43.14-31.49ZM87.13 0.44L87.13 0.44Q83.78 0.44 81.88-0.66L81.88-0.66Q79.83-1.81 79.66-3.91L79.66-3.91 79.44-6.2Q81.68-6.74 83.22-8.98L83.22-8.98Q83.64-9.62 83.64-10.08L83.64-10.08Q83.64-10.72 83-10.72L83-10.72 82.93-10.72Q82.91-10.69 82.83-10.69L82.83-10.69Q81.12-7.1 77.29-7.1L77.29-7.1Q75.34-7.1 73.96-7.96 72.58-8.81 71.43-10.91L71.43-10.91 71.28-10.91Q70.62-10.91 70.62-10.35L70.62-10.35Q70.62-9.96 70.92-9.47L70.92-9.47Q71.89-7.84 73.36-6.91L73.36-6.91Q74.51-6.13 75.78-5.98L75.78-5.98 75.58-1.37Q74.12-0.42 72.49 0.01 70.87 0.44 67.88 0.44 64.89 0.44 62.54-0.73L62.54-0.73Q59.66-2.17 59.66-4.74L59.66-4.74Q59.66-7.93 60.93-20.53L60.93-20.53Q61.62-27.1 62.03-29.71L62.03-29.71Q64.55-31.96 69.45-31.96L69.45-31.96Q73.02-31.96 75.36-30.64L75.36-30.64 76.7-26.15 75.85-22.56Q75.75-22.19 75.75-21.85L75.75-21.85Q75.75-21 76.73-20.97L76.73-20.97 79.05-30.62Q80.05-31.15 81.66-31.56 83.27-31.96 85.18-31.96L85.18-31.96Q88.74-31.96 90.46-30.75 92.18-29.54 92.5-26.68L92.5-26.68Q92.57-26.15 92.72-24.9L92.72-24.9Q94.94-5.81 94.94-2.42L94.94-2.42Q92.23 0.44 87.13 0.44ZM110.39-27.08L110.39-27.08 110.39-1.86Q109.27-0.88 107.39-0.22 105.51 0.44 102.82 0.44 100.14 0.44 98.26-0.76L98.26-0.76Q96.14-2.05 96.14-4.42L96.14-4.42 96.14-29.64Q97.26-30.62 99.14-31.27 101.02-31.93 103.68-31.93 106.34-31.93 108.29-30.76L108.29-30.76Q110.39-29.42 110.39-27.08ZM112.2-4.52L112.2-4.52 112.2-28.98Q112.2-30.25 114.24-31.09 116.27-31.93 119.03-31.93L119.03-31.93Q120.6-31.93 121.97-31.56 123.35-31.18 124.09-30.59L124.09-30.59Q125.09-29.32 125.92-28 126.75-26.68 129.65-21.85L129.65-21.85Q129.92-21.85 130.14-22.02 130.36-22.19 130.36-22.55 130.36-22.9 129.75-23.93L129.75-23.93 127.11-28.47 127.11-29.81Q128.36-30.83 130.14-31.4 131.92-31.96 133.83-31.96L133.83-31.96Q136.93-31.96 138.83-30.83L138.83-30.83Q141.05-29.49 141.05-26.64L141.05-26.64 141.05-3.52Q141.05-1.42 139.05-0.46L139.05-0.46Q137.34 0.39 134.49 0.39L134.49 0.39Q132.9 0.39 131.4 0.05 129.9-0.29 129.04-0.83L129.04-0.83Q127.31-3.05 125.6-5.81L125.6-5.81 123.11-9.96Q122.4-9.86 122.4-9.2L122.4-9.2Q122.4-8.79 123.11-7.62L123.11-7.62 126.16-2.69 126.16-1.39Q123.33 0.44 119.78 0.44 116.23 0.44 114.21-0.85 112.2-2.15 112.2-4.52ZM153.84-31.49L153.84-31.49 167.93-31.49Q168.64-30.32 168.98-28.94 169.32-27.56 169.32-26.46L169.32-26.46Q169.32-24 168.36-22.75 167.39-21.51 165.66-21.51L165.66-21.51 155.82-21.51Q154.92-21.51 154.92-20.8L154.92-20.8 154.92-20.61Q154.92-20.46 154.97-20.41L154.97-20.41 166.64-20.41Q167.08-19.65 167.39-18.51L167.39-18.51Q167.69-17.26 167.69-16.28L167.69-16.28Q167.69-13.38 166.61-11.74L166.61-11.74 161.32-11.74Q157.6-11.74 156.29-11.46 154.97-11.18 154.65-10.99L154.65-10.99Q154.33-10.77 154.33-10.42 154.33-10.08 154.68-9.89L154.68-9.89Q155.94-10.3 157.34-10.47L157.34-10.47Q159.17-10.64 161.32-10.64L161.32-10.64 168.18-10.64Q169.67-8.54 169.67-5.59L169.67-5.59Q169.67-3.93 169.25-2.42 168.84-0.9 168.01 0.02L168.01 0.02 149.72 0.02Q146.69 0.02 144.86-1.44L144.86-1.44Q142.86-3 142.86-6.03L142.86-6.03 142.86-29.25Q142.86-30.42 145.54-30.96 148.23-31.49 153.84-31.49Z" opacity="1" transform="matrix(1,0,0,1,0,0)" fill="#50a060" class="undefined-text-0" data-fill-palette-color="primary" id="text-0">
															</path>
														</svg>
													</g>
												</svg>
											</g>
											<g transform="matrix(1,0,0,1,0,94.34400992471814)">
												<svg viewBox="0 0 395.52 47.16910459670426" height="47.16910459670426" width="395.52">
													<g transform="matrix(1,0,0,1,0,0)">
														<svg width="395.52" viewBox="2.25 -33.29999923706055 373.1400146484375 44.5" height="47.16910459670426" data-palette-color="#c9efc7">
															<path d="M9.05-0.5L9.05-0.5 9.3-0.5 9.3 0 2.25 0 2.25-0.5 2.5-0.5Q2.85-0.5 3.15-0.8 3.45-1.1 3.68-1.5 3.9-1.9 4-2.38 4.1-2.85 4.1-3.25L4.1-3.25 4.1-29.9Q4.1-30.25 4-30.7 3.9-31.15 3.68-31.55 3.45-31.95 3.15-32.23 2.85-32.5 2.5-32.5L2.5-32.5 2.25-32.5 2.25-33 10.95-33Q15.95-33 18.68-31.05 21.4-29.1 21.4-25.3L21.4-25.3Q21.4-23.4 20.78-21.98 20.15-20.55 19.1-19.53 18.05-18.5 16.63-17.88 15.2-17.25 13.6-16.95L13.6-16.95 17.2-11.45Q18.5-9.45 19.85-7.53 21.2-5.6 22.5-3.55L22.5-3.55Q22.85-3.05 23.28-2.5 23.7-1.95 24.18-1.5 24.65-1.05 25.18-0.78 25.7-0.5 26.25-0.5L26.25-0.5 26.25 0 24.1 0Q22.1 0 20.83-0.98 19.55-1.95 18.7-3.25L18.7-3.25Q16.45-6.55 14.23-9.95 12-13.35 9.8-16.65L9.8-16.65Q9.25-16.7 8.63-16.78 8-16.85 7.45-16.95L7.45-16.95 7.45-3.25Q7.45-2.85 7.55-2.38 7.65-1.9 7.88-1.5 8.1-1.1 8.38-0.8 8.65-0.5 9.05-0.5ZM8.2-31.3L7.45-31.3 7.45-18.6 7.7-18.6Q8.1-18.55 8.97-18.53 9.85-18.5 11.15-18.5L11.15-18.5Q12.2-18.5 13.38-18.82 14.55-19.15 15.58-19.93 16.6-20.7 17.28-21.95 17.95-23.2 17.95-25.1L17.95-25.1Q17.95-27 17.23-28.2 16.5-29.4 15.23-30.1 13.95-30.8 12.15-31.05 10.35-31.3 8.2-31.3L8.2-31.3ZM48.71-10.1L31.36-10.1Q31.56-8.35 32.21-6.78 32.86-5.2 33.94-4 35.01-2.8 36.56-2.08 38.11-1.35 40.16-1.35L40.16-1.35Q41.26-1.35 42.49-1.68 43.71-2 44.76-2.6 45.81-3.2 46.64-4.08 47.46-4.95 47.76-6.05L47.76-6.05 48.21-6.05 48.21-2.3Q47.91-2.3 47.54-2.1 47.16-1.9 46.66-1.6L46.66-1.6Q45.66-1 43.96-0.33 42.26 0.35 39.46 0.35L39.46 0.35Q37.21 0.35 35.19-0.3 33.16-0.95 31.61-2.3 30.06-3.65 29.14-5.75 28.21-7.85 28.21-10.75L28.21-10.75Q28.21-12.6 28.84-14.5 29.46-16.4 30.74-17.93 32.01-19.45 34.01-20.4 36.01-21.35 38.81-21.35L38.81-21.35Q41.31-21.35 43.19-20.5 45.06-19.65 46.29-18.15 47.51-16.65 48.11-14.6 48.71-12.55 48.71-10.1L48.71-10.1ZM38.61-19.7L38.61-19.7Q36.86-19.7 35.59-19 34.31-18.3 33.41-17.2 32.51-16.1 32.01-14.7 31.51-13.3 31.36-11.9L31.36-11.9 45.61-11.9Q45.56-13.35 45.09-14.75 44.61-16.15 43.76-17.25 42.91-18.35 41.61-19.03 40.31-19.7 38.61-19.7ZM73.83-5.7L73.83-1.8Q73.43-1.8 73.08-1.63 72.73-1.45 72.28-1.2L72.28-1.2Q71.43-0.7 70.13-0.18 68.83 0.35 66.73 0.35L66.73 0.35Q64.18 0.35 62-0.48 59.83-1.3 58.25-2.78 56.68-4.25 55.8-6.23 54.93-8.2 54.93-10.5L54.93-10.5Q54.93-12.65 55.7-14.6 56.48-16.55 57.93-18.05 59.38-19.55 61.5-20.45 63.63-21.35 66.33-21.35L66.33-21.35Q68.18-21.35 69.33-20.93 70.48-20.5 71.28-20.1L71.28-20.1Q71.73-19.85 72.15-19.7 72.58-19.55 73.03-19.55L73.03-19.55 73.03-15.75 72.53-15.75Q72.28-16.7 71.63-17.43 70.98-18.15 70.13-18.65 69.28-19.15 68.28-19.4 67.28-19.65 66.33-19.65L66.33-19.65Q64.28-19.65 62.73-18.93 61.18-18.2 60.18-17.03 59.18-15.85 58.68-14.35 58.18-12.85 58.18-11.25L58.18-11.25Q58.18-9.4 58.78-7.63 59.38-5.85 60.5-4.45 61.63-3.05 63.23-2.2 64.83-1.35 66.83-1.35L66.83-1.35Q68.23-1.35 69.4-1.75 70.58-2.15 71.4-2.8 72.23-3.45 72.73-4.23 73.23-5 73.33-5.7L73.33-5.7 73.83-5.7ZM99.79-12.9L99.79-3.25Q99.79-2.85 99.89-2.38 99.99-1.9 100.21-1.5 100.44-1.1 100.71-0.8 100.99-0.5 101.39-0.5L101.39-0.5 101.39 0 94.94 0 94.94-0.5Q95.29-0.5 95.59-0.8 95.89-1.1 96.11-1.5 96.34-1.9 96.44-2.38 96.54-2.85 96.54-3.25L96.54-3.25 96.54-12.55Q96.54-14.35 96.04-15.7 95.54-17.05 94.69-17.95 93.84-18.85 92.76-19.28 91.69-19.7 90.59-19.7L90.59-19.7Q89.49-19.7 88.41-19.28 87.34-18.85 86.51-18.1 85.69-17.35 85.16-16.28 84.64-15.2 84.64-13.9L84.64-13.9 84.64-3.25Q84.64-2.85 84.74-2.38 84.84-1.9 85.06-1.5 85.29-1.1 85.56-0.8 85.84-0.5 86.24-0.5L86.24-0.5 86.24 0 79.74 0 79.74-0.5Q80.09-0.5 80.39-0.8 80.69-1.1 80.91-1.5 81.14-1.9 81.24-2.38 81.34-2.85 81.34-3.25L81.34-3.25 81.34-28.8Q81.34-29.65 81.09-30.4 80.84-31.15 79.64-31.2L79.64-31.2 79.64-31.7 84.64-33.25 84.64-18.8Q84.99-19.2 85.54-19.68 86.09-20.15 86.86-20.58 87.64-21 88.66-21.28 89.69-21.55 91.09-21.55L91.09-21.55Q93.44-21.55 95.09-20.75 96.74-19.95 97.79-18.68 98.84-17.4 99.31-15.88 99.79-14.35 99.79-12.9L99.79-12.9ZM126.85 0L122 0 122-2.55 121.75-2.3Q120.5-1.05 118.88-0.35 117.25 0.35 114.95 0.35L114.95 0.35Q113.2 0.35 111.95-0.05 110.7-0.45 109.9-1.18 109.1-1.9 108.73-2.85 108.35-3.8 108.35-4.85L108.35-4.85Q108.35-6.55 109.28-7.85 110.2-9.15 111.95-10.15 113.7-11.15 116.23-11.98 118.75-12.8 122-13.6L122-13.6Q121.9-15.55 121.2-16.75 120.5-17.95 119.55-18.63 118.6-19.3 117.55-19.53 116.5-19.75 115.75-19.75L115.75-19.75Q114.45-19.75 113.48-19.35 112.5-18.95 111.78-18.32 111.05-17.7 110.55-16.98 110.05-16.25 109.75-15.6L109.75-15.6 109.3-15.6 109.3-19.25Q109.7-19.3 110.05-19.5 110.4-19.7 110.9-19.9L110.9-19.9Q111.65-20.2 112.95-20.78 114.25-21.35 116.6-21.35L116.6-21.35Q119.35-21.35 121.05-20.65 122.75-19.95 123.68-18.8 124.6-17.65 124.9-16.18 125.2-14.7 125.2-13.15L125.2-13.15 125.2-3.25Q125.2-2.25 125.65-1.38 126.1-0.5 126.85-0.5L126.85-0.5 126.85 0ZM121.45-4.15L122-4.75 122-11.9 121.5-11.8Q120.3-11.5 118.58-11 116.85-10.5 115.3-9.7 113.75-8.9 112.65-7.8 111.55-6.7 111.55-5.25L111.55-5.25Q111.55-3.65 112.85-2.6 114.15-1.55 116.25-1.55L116.25-1.55Q117.9-1.55 119.15-2.27 120.4-3 121.45-4.15L121.45-4.15ZM147.86-20.4L146.36-17.35Q145.76-18.35 145.11-18.6 144.46-18.85 143.61-18.85L143.61-18.85Q143.06-18.85 142.44-18.6 141.81-18.35 141.21-17.95 140.61-17.55 140.04-17.07 139.46-16.6 139.06-16.2L139.06-16.2 139.06-3.2Q139.06-2.8 139.16-2.35 139.26-1.9 139.49-1.48 139.71-1.05 139.99-0.78 140.26-0.5 140.66-0.5L140.66-0.5 140.66 0 134.16 0 134.16-0.5Q134.51-0.5 134.81-0.78 135.11-1.05 135.34-1.48 135.56-1.9 135.66-2.35 135.76-2.8 135.76-3.2L135.76-3.2 135.76-17.15Q135.76-17.85 135.31-18.55 134.86-19.25 134.01-19.45L134.01-19.45 134.01-19.85 139.06-21.35 139.06-18.35Q139.51-18.9 140.01-19.43 140.51-19.95 141.14-20.38 141.76-20.8 142.51-21.08 143.26-21.35 144.26-21.35L144.26-21.35Q144.96-21.35 146.06-21.05 147.16-20.75 147.86-20.4L147.86-20.4ZM163.93 9.3L163.93 9.3Q165.43 9.3 166.78 9.03 168.13 8.75 169.15 8.25 170.18 7.75 170.78 7.05 171.38 6.35 171.38 5.55L171.38 5.55Q171.38 4.7 170.55 4.1 169.73 3.5 168.33 3.05 166.93 2.6 165.08 2.27 163.23 1.95 161.23 1.6L161.23 1.6 158.68 1.15Q157.53 2.05 157.08 3.05 156.63 4.05 156.63 4.8L156.63 4.8Q156.63 5.85 157.2 6.68 157.78 7.5 158.75 8.1 159.73 8.7 161.05 9 162.38 9.3 163.93 9.3ZM160.43-1.7L166.68-0.7Q168.68-0.4 170 0.1 171.33 0.6 172.13 1.28 172.93 1.95 173.23 2.78 173.53 3.6 173.53 4.55L173.53 4.55Q173.53 6.25 172.6 7.5 171.68 8.75 170.2 9.58 168.73 10.4 166.85 10.8 164.98 11.2 163.03 11.2L163.03 11.2Q161.13 11.2 159.38 10.83 157.63 10.45 156.28 9.7 154.93 8.95 154.13 7.83 153.33 6.7 153.33 5.25L153.33 5.25Q153.33 3.95 154.13 2.78 154.93 1.6 156.73 0.45L156.73 0.45Q154.98-0.45 154.05-1.98 153.13-3.5 153.13-5.1L153.13-5.1Q153.13-6.05 153.58-6.98 154.03-7.9 155.03-8.7L155.03-8.7Q154.18-9.7 153.83-10.7 153.48-11.7 153.48-12.85L153.48-12.85Q153.48-14.65 154.23-16.2 154.98-17.75 156.28-18.9 157.58-20.05 159.33-20.7 161.08-21.35 163.08-21.35L163.08-21.35Q165.18-21.35 167.08-20.63 168.98-19.9 170.28-18.75L170.28-18.75 173.88-18.75 173.88-16.95 171.58-16.95Q171.93-16.2 172.28-15.18 172.63-14.15 172.63-13.05L172.63-13.05Q172.63-11.45 171.88-10.03 171.13-8.6 169.8-7.53 168.48-6.45 166.7-5.83 164.93-5.2 162.93-5.2L162.93-5.2Q161.08-5.2 159.33-5.75 157.58-6.3 156.23-7.35L156.23-7.35Q155.68-7 155.48-6.48 155.28-5.95 155.28-5.4L155.28-5.4Q155.28-3.8 156.73-2.93 158.18-2.05 160.43-1.7L160.43-1.7ZM162.48-19.6L162.48-19.6Q161.28-19.6 160.23-19.18 159.18-18.75 158.38-18 157.58-17.25 157.1-16.18 156.63-15.1 156.63-13.75L156.63-13.75Q156.63-12.1 157.3-10.8 157.98-9.5 159.03-8.65 160.08-7.8 161.35-7.35 162.63-6.9 163.78-6.9L163.78-6.9Q165.03-6.9 166.05-7.38 167.08-7.85 167.83-8.68 168.58-9.5 168.98-10.6 169.38-11.7 169.38-12.9L169.38-12.9Q169.38-14.4 168.78-15.65 168.18-16.9 167.2-17.78 166.23-18.65 164.98-19.13 163.73-19.6 162.48-19.6ZM200.89-10.1L183.54-10.1Q183.74-8.35 184.39-6.78 185.04-5.2 186.11-4 187.19-2.8 188.74-2.08 190.29-1.35 192.34-1.35L192.34-1.35Q193.44-1.35 194.66-1.68 195.89-2 196.94-2.6 197.99-3.2 198.81-4.08 199.64-4.95 199.94-6.05L199.94-6.05 200.39-6.05 200.39-2.3Q200.09-2.3 199.71-2.1 199.34-1.9 198.84-1.6L198.84-1.6Q197.84-1 196.14-0.33 194.44 0.35 191.64 0.35L191.64 0.35Q189.39 0.35 187.36-0.3 185.34-0.95 183.79-2.3 182.24-3.65 181.31-5.75 180.39-7.85 180.39-10.75L180.39-10.75Q180.39-12.6 181.01-14.5 181.64-16.4 182.91-17.93 184.19-19.45 186.19-20.4 188.19-21.35 190.99-21.35L190.99-21.35Q193.49-21.35 195.36-20.5 197.24-19.65 198.46-18.15 199.69-16.65 200.29-14.6 200.89-12.55 200.89-10.1L200.89-10.1ZM190.79-19.7L190.79-19.7Q189.04-19.7 187.76-19 186.49-18.3 185.59-17.2 184.69-16.1 184.19-14.7 183.69-13.3 183.54-11.9L183.54-11.9 197.79-11.9Q197.74-13.35 197.26-14.75 196.79-16.15 195.94-17.25 195.09-18.35 193.79-19.03 192.49-19.7 190.79-19.7ZM229.81 0L223.26 0 223.26-0.5Q223.66-0.5 223.96-0.8 224.26-1.1 224.49-1.5 224.71-1.9 224.81-2.38 224.91-2.85 224.91-3.25L224.91-3.25 224.91-28.85Q224.91-29.7 224.66-30.45 224.41-31.2 223.16-31.25L223.16-31.25 223.16-31.75 228.21-33.3 228.21-3.25Q228.21-2.85 228.31-2.38 228.41-1.9 228.64-1.5 228.86-1.1 229.14-0.8 229.41-0.5 229.81-0.5L229.81-0.5 229.81 0ZM244.33 0L237.83 0 237.83-0.5Q238.23-0.5 238.53-0.8 238.83-1.1 239.03-1.5 239.23-1.9 239.33-2.38 239.43-2.85 239.43-3.25L239.43-3.25 239.43-17.1Q239.43-17.95 239.18-18.73 238.93-19.5 237.73-19.55L237.73-19.55 237.73-20 242.73-21.6 242.73-3.25Q242.73-2.85 242.83-2.38 242.93-1.9 243.13-1.5 243.33-1.1 243.63-0.8 243.93-0.5 244.33-0.5L244.33-0.5 244.33 0ZM238.08-26.4L238.08-26.4Q238.08-27.4 238.75-28.1 239.43-28.8 240.43-28.8L240.43-28.8Q241.43-28.8 242.13-28.1 242.83-27.4 242.83-26.4L242.83-26.4Q242.83-25.4 242.13-24.75 241.43-24.1 240.43-24.1L240.43-24.1Q239.43-24.1 238.75-24.75 238.08-25.4 238.08-26.4ZM262.69-19.3L257.09-19.3 257.09-7.25Q257.09-5.95 257.14-4.9 257.19-3.85 257.39-3.15 257.59-2.45 257.99-2.08 258.39-1.7 259.09-1.7L259.09-1.7Q260.14-1.7 261.06-2.7 261.99-3.7 262.24-5.1L262.24-5.1 262.69-5.1 262.69-1.45Q262.24-1.45 261.94-1.15L261.94-1.15Q261.54-0.8 260.81-0.4 260.09 0 258.64 0L258.64 0Q256.84 0 255.84-0.7 254.84-1.4 254.39-2.55 253.94-3.7 253.86-5.1 253.79-6.5 253.79-7.95L253.79-7.95 253.79-19.3 250.99-19.3 250.99-21 253.79-21 253.79-25.45Q253.79-26.3 253.56-27.03 253.34-27.75 252.09-27.8L252.09-27.8 252.09-28.3 257.09-29.9 257.09-21 262.69-21 262.69-19.3ZM289.05-12.9L289.05-3.25Q289.05-2.85 289.15-2.38 289.25-1.9 289.48-1.5 289.7-1.1 289.98-0.8 290.25-0.5 290.65-0.5L290.65-0.5 290.65 0 284.2 0 284.2-0.5Q284.55-0.5 284.85-0.8 285.15-1.1 285.38-1.5 285.6-1.9 285.7-2.38 285.8-2.85 285.8-3.25L285.8-3.25 285.8-12.55Q285.8-14.35 285.3-15.7 284.8-17.05 283.95-17.95 283.1-18.85 282.03-19.28 280.95-19.7 279.85-19.7L279.85-19.7Q278.75-19.7 277.68-19.28 276.6-18.85 275.78-18.1 274.95-17.35 274.43-16.28 273.9-15.2 273.9-13.9L273.9-13.9 273.9-3.25Q273.9-2.85 274-2.38 274.1-1.9 274.33-1.5 274.55-1.1 274.83-0.8 275.1-0.5 275.5-0.5L275.5-0.5 275.5 0 269 0 269-0.5Q269.35-0.5 269.65-0.8 269.95-1.1 270.18-1.5 270.4-1.9 270.5-2.38 270.6-2.85 270.6-3.25L270.6-3.25 270.6-28.8Q270.6-29.65 270.35-30.4 270.1-31.15 268.9-31.2L268.9-31.2 268.9-31.7 273.9-33.25 273.9-18.8Q274.25-19.2 274.8-19.68 275.35-20.15 276.13-20.58 276.9-21 277.93-21.28 278.95-21.55 280.35-21.55L280.35-21.55Q282.7-21.55 284.35-20.75 286-19.95 287.05-18.68 288.1-17.4 288.58-15.88 289.05-14.35 289.05-12.9L289.05-12.9ZM305.26 0L298.76 0 298.76-0.5Q299.16-0.5 299.46-0.8 299.76-1.1 299.96-1.5 300.16-1.9 300.26-2.38 300.36-2.85 300.36-3.25L300.36-3.25 300.36-17.1Q300.36-17.95 300.11-18.73 299.86-19.5 298.66-19.55L298.66-19.55 298.66-20 303.66-21.6 303.66-3.25Q303.66-2.85 303.76-2.38 303.86-1.9 304.06-1.5 304.26-1.1 304.56-0.8 304.86-0.5 305.26-0.5L305.26-0.5 305.26 0ZM299.01-26.4L299.01-26.4Q299.01-27.4 299.69-28.1 300.36-28.8 301.36-28.8L301.36-28.8Q302.36-28.8 303.06-28.1 303.76-27.4 303.76-26.4L303.76-26.4Q303.76-25.4 303.06-24.75 302.36-24.1 301.36-24.1L301.36-24.1Q300.36-24.1 299.69-24.75 299.01-25.4 299.01-26.4ZM332.93-21.55L332.93-3.25Q332.93-2.9 333.03-2.43 333.13-1.95 333.3-1.53 333.48-1.1 333.78-0.8 334.08-0.5 334.48-0.5L334.48-0.5 334.48 0 329.63 0 329.63-2.75Q328.88-1.65 327.43-0.6 325.98 0.45 323.68 0.45L323.68 0.45Q320.78 0.45 319.08-0.55 317.38-1.55 316.48-3.1 315.58-4.65 315.33-6.48 315.08-8.3 315.08-9.9L315.08-9.9 315.08-17.05Q315.08-17.5 315.05-17.93 315.03-18.35 314.85-18.7 314.68-19.05 314.33-19.28 313.98-19.5 313.33-19.5L313.33-19.5 313.33-19.95 318.38-21.55 318.38-8.8Q318.38-5 320.03-3.2 321.68-1.4 324.08-1.4L324.08-1.4Q325.38-1.4 326.4-1.98 327.43-2.55 328.15-3.35 328.88-4.15 329.25-5 329.63-5.85 329.63-6.4L329.63-6.4 329.63-17.05Q329.63-17.5 329.6-17.93 329.58-18.35 329.4-18.7 329.23-19.05 328.88-19.28 328.53-19.5 327.88-19.5L327.88-19.5 327.88-19.95 332.93-21.55ZM373.84-12.6L373.84-3.25Q373.84-2.85 373.94-2.38 374.04-1.9 374.24-1.5 374.44-1.1 374.71-0.8 374.99-0.5 375.39-0.5L375.39-0.5 375.39 0 368.89 0 368.89-0.5Q369.29-0.5 369.59-0.8 369.89-1.1 370.11-1.5 370.34-1.9 370.44-2.38 370.54-2.85 370.54-3.25L370.54-3.25 370.54-14.05Q370.54-15.2 370.21-16.25 369.89-17.3 369.24-18.07 368.59-18.85 367.64-19.33 366.69-19.8 365.49-19.8L365.49-19.8Q364.14-19.8 363.16-19.18 362.19-18.55 361.56-17.65 360.94-16.75 360.64-15.83 360.34-14.9 360.34-14.3L360.34-14.3 360.34-3.25Q360.34-2.85 360.44-2.38 360.54-1.9 360.76-1.5 360.99-1.1 361.26-0.8 361.54-0.5 361.94-0.5L361.94-0.5 361.94 0 355.49 0 355.49-0.5Q355.84-0.5 356.14-0.8 356.44-1.1 356.66-1.5 356.89-1.9 356.99-2.38 357.09-2.85 357.09-3.25L357.09-3.25 357.09-14.35Q357.09-15.55 356.66-16.57 356.24-17.6 355.51-18.3 354.79-19 353.86-19.4 352.94-19.8 351.99-19.8L351.99-19.8Q350.69-19.8 349.71-19.3 348.74-18.8 348.11-18.05 347.49-17.3 347.16-16.43 346.84-15.55 346.84-14.75L346.84-14.75 346.84-3.25Q346.84-2.85 346.94-2.38 347.04-1.9 347.26-1.5 347.49-1.1 347.76-0.8 348.04-0.5 348.44-0.5L348.44-0.5 348.44 0 341.99 0 341.99-0.5Q342.34-0.5 342.64-0.8 342.94-1.1 343.16-1.5 343.39-1.9 343.49-2.38 343.59-2.85 343.59-3.25L343.59-3.25 343.59-16.6Q343.59-17 343.54-17.5 343.49-18 343.34-18.45 343.19-18.9 342.84-19.2 342.49-19.5 341.89-19.5L341.89-19.5 341.89-19.95 346.84-21.6 346.84-19.05Q347.59-19.9 348.91-20.7 350.24-21.5 352.39-21.5L352.39-21.5Q353.79-21.5 354.89-21.1 355.99-20.7 356.81-20.08 357.64-19.45 358.24-18.65 358.84-17.85 359.24-17.1L359.24-17.1Q359.64-17.85 360.19-18.63 360.74-19.4 361.51-20.05 362.29-20.7 363.36-21.1 364.44-21.5 365.89-21.5L365.89-21.5Q368.69-21.5 370.29-20.5 371.89-19.5 372.66-18.1 373.44-16.7 373.64-15.18 373.84-13.65 373.84-12.6L373.84-12.6Z" opacity="1" transform="matrix(1,0,0,1,0,0)" fill="#c9efc7" class="undefined-text-1" data-fill-palette-color="secondary" id="text-1">
															</path>
														</svg>
													</g>
												</svg>
											</g>
										</svg>
									</g>
								</svg>
							</g>
							<g transform="matrix(1,0,0,1,131.08865912402243,0)">
								<svg viewBox="0 0 133.34268175195513 195.5711242686058" height="195.5711242686058" width="133.34268175195513">
									<g>
										<svg xmlns="http://www.w3.org/2000/svg" xmlns:xlink="http://www.w3.org/1999/xlink" version="1.1" x="8.000000000000007" y="0" viewBox="25.100000381469727 11 49.80000305175781 83" enable-background="new 0 0 100 100" xml:space="preserve" height="195.5711242686058" width="117.34268175195511" class="icon-icon-0" data-fill-palette-color="accent" id="icon-0">
											<g fill="#50a060" data-fill-palette-color="accent">
												<path d="M74.9 94H25.1V20.96H74.9V94zM31.74 27.6v59.76h36.52V27.6H31.74zM36.72 17.64V11h26.56v6.64H36.72zM36.72 60.8v-6.64h26.56v6.64H36.72zM36.72 70.76v-6.64h26.56v6.64H36.72zM36.72 80.72v-6.64h26.56v6.64H36.72z" fill="#50a060" data-fill-palette-color="accent">
												</path>
											</g>
										</svg>
									</g>
								</svg>
							</g>
							<g>
								<rect width="70.99658779498344" height="6.883104419169472" y="187.6880198494363" x="264.4313408759775" fill="#50a060" data-fill-palette-color="accent">
								</rect>
								<rect width="70.99658779498344" height="6.883104419169472" y="187.6880198494363" x="60.09207132903899" fill="#50a060" data-fill-palette-color="accent">
								</rect>
								<rect width="70.99658779498344" height="6.883104419169472" y="173.92181101109736" x="264.4313408759775" fill="#50a060" data-fill-palette-color="accent">
								</rect>
								<rect width="70.99658779498344" height="6.883104419169472" y="173.92181101109736" x="60.09207132903899" fill="#50a060" data-fill-palette-color="accent">
								</rect>
							</g>
						</svg>
					</g>
					<defs>
					</defs>
				</svg>
				<rect width="275.335857341922" height="247.2" fill="none" stroke="none" visibility="hidden">
				</rect>
			</g>
		</svg>
	</g>
</svg>
